<?xml version="1.0" encoding="UTF-8" standalone="no"?>
<!-- Generator: Adobe Illustrator 19.0.0, SVG Export Plug-In . SVG Version: 6.00 Build 0)  -->

<svg
   version="1.1"
   id="Layer_1"
   x="0px"
   y="0px"
   viewBox="0 0 509.665 509.665"
   style="enable-background:new 0 0 509.665 509.665;"
   xml:space="preserve"
   sodipodi:docname="cord-on-the-go.svg"
   inkscape:version="1.1 (c4e8f9ed74, 2021-05-24)"
   xmlns:inkscape="http://www.inkscape.org/namespaces/inkscape"
   xmlns:sodipodi="http://sodipodi.sourceforge.net/DTD/sodipodi-0.dtd"
   xmlns="http://www.w3.org/2000/svg"
   xmlns:svg="http://www.w3.org/2000/svg"><defs
   id="defs57" /><sodipodi:namedview
   id="namedview55"
   pagecolor="#ffffff"
   bordercolor="#666666"
   borderopacity="1.0"
   inkscape:pageshadow="2"
   inkscape:pageopacity="0.0"
   inkscape:pagecheckerboard="0"
   showgrid="false"
   inkscape:zoom="1.2949682"
   inkscape:cx="114.67463"
   inkscape:cy="254.44639"
   inkscape:window-width="1920"
   inkscape:window-height="1009"
   inkscape:window-x="0"
   inkscape:window-y="0"
   inkscape:window-maximized="1"
   inkscape:current-layer="icons" />
<g
   id="g22">
	<g
   id="g6">
		<path
   style="fill:#535353;"
   d="M364.345,399.951c-20.169,0-36.571-16.402-36.571-36.571s16.402-36.571,36.571-36.571    c5.047,0,9.143-4.087,9.143-9.143c0-5.056-4.096-9.143-9.143-9.143c-30.254,0-54.857,24.603-54.857,54.857    s24.603,54.857,54.857,54.857c20.169,0,36.571,16.402,36.571,36.571s-16.402,36.571-36.571,36.571H245.488    c-30.254,0-54.857-24.603-54.857-54.857c0-5.056-4.096-9.143-9.143-9.143c-5.047,0-9.143,4.087-9.143,9.143    c0,40.329,32.814,73.143,73.143,73.143h118.857c30.254,0,54.857-24.603,54.857-54.857S394.599,399.951,364.345,399.951"
   id="path2" />
		<path
   style="fill:#535353;"
   d="M400.916,363.379c-5.047,0-9.143-4.087-9.143-9.143c0-15.122-12.306-27.429-27.429-27.429    c-5.047,0-9.143-4.087-9.143-9.143c0-5.056,4.096-9.143,9.143-9.143c25.207,0,45.714,20.507,45.714,45.714    C410.059,359.292,405.963,363.379,400.916,363.379"
   id="path4" />
	</g>
	<path
   style="fill:#0e1cb6;fill-opacity:1"
   d="M260.715,305.421c-17.856,17.856-46.793,17.856-64.649,0c-17.856-17.856-17.856-46.793,0-64.649   c17.856-17.856,46.793-17.856,64.649,0C278.571,258.628,278.571,287.565,260.715,305.421"
   id="path8" />
	<g
   id="g14">
		<path
   style="fill:#5865f2;fill-opacity:1"
   d="M160.145,479.615l100.571-174.199c-17.573,17.582-45.851,17.765-63.762,0.731l-84.315,146.039    c-7.543,13.065-3.026,29.925,10.039,37.467S152.602,492.68,160.145,479.615"
   id="path10" />
		<path
   style="fill:#5865f2;fill-opacity:1"
   d="M196.066,240.771L21.867,341.342c-13.056,7.543-17.582,24.402-10.039,37.467    c7.543,13.065,24.411,17.582,37.477,10.039l146.039-84.315C178.311,286.622,178.493,258.343,196.066,240.771"
   id="path12" />
	</g>
	<g
   id="g20"
   style="fill:#818181;fill-opacity:1">
		<path
   style="fill:#818181;fill-opacity:1"
   d="M474.06,117.936l-33.682,41.527l-40.814,2.45l-22.528,34.121l-48.731,7.022l-22.528,34.121    l-40.814,2.45l-3.52,2.03c17.033,17.911,16.85,46.19-0.731,63.762l240.777-139.977L474.06,117.936z"
   id="path16" />
		<path
   style="fill:#818181;fill-opacity:1"
   d="M259.827,240.046l2.03-3.52l2.45-40.814l34.121-22.528l7.022-48.731l34.121-22.528l2.45-40.814    l41.527-33.682L336.042,0L196.065,240.768C213.638,223.195,241.916,223.013,259.827,240.046"
   id="path18" />
	</g>
<g
   id="Page-1"
   stroke="none"
   stroke-width="1"
   fill="none"
   fill-rule="evenodd"
   transform="matrix(6.9864013,0,0,6.9864013,349.46511,44.56227)"><g
     id="Dribbble-Light-Preview"
     transform="translate(-180,-3283)"
     fill="#000000"><g
       id="icons"
       transform="translate(56,160)"><path
         d="m 129.42682,3124.8317 c 0.45978,-0.4192 0.49612,-1.1345 0.0812,-1.5982 l -0.0139,-0.016 c -0.41491,-0.4637 -1.12345,-0.4997 -1.58321,-0.081 l -4.21629,3.8435 c -0.45976,0.4192 -0.49616,1.1356 -0.0813,1.5994 l 3.80486,4.2511 c 0.41491,0.4636 1.12345,0.4997 1.58322,0.08 l 0.0154,-0.014 c 0.45978,-0.4192 0.49612,-1.1345 0.0812,-1.5982 l -2.28781,-2.5568 c -0.41489,-0.4638 -0.37849,-1.1802 0.0813,-1.5993 z m 15.28573,3.2175 -3.80486,-4.2511 c -0.41377,-0.4637 -1.12344,-0.4997 -1.58321,-0.081 l -0.0154,0.014 c -0.45976,0.4193 -0.49611,1.1346 -0.0812,1.5982 l 2.28894,2.5569 c 0.41491,0.4638 0.37849,1.1801 -0.0813,1.5993 l -2.5364,2.3117 c -0.45976,0.4193 -0.49611,1.1346 -0.0812,1.5982 l 0.0139,0.016 c 0.41489,0.4636 1.12457,0.4997 1.58321,0.08 l 4.21628,-3.8436 c 0.45976,-0.4191 0.49617,-1.1355 0.0813,-1.5993 z m -6.49356,-5.0704 -6.40274,12.0612 c -0.20682,0.379 -0.55945,0.8423 -0.98289,0.8208 h -0.0224 c -0.82338,-0.042 -1.30313,-1.1874 -0.90074,-1.9228 l 6.3632,-11.946 c 0.20676,-0.3778 0.91561,-0.6462 0.91561,-0.6462 l 0.001,-0.029 c 1.12025,0.057 1.4298,0.9273 1.02852,1.6627 z"
         id="code-[#1115]"
         style="stroke-width:1.1422" /></g></g></g></g>
<g
   id="g24">
</g>
<g
   id="g26">
</g>
<g
   id="g28">
</g>
<g
   id="g30">
</g>
<g
   id="g32">
</g>
<g
   id="g34">
</g>
<g
   id="g36">
</g>
<g
   id="g38">
</g>
<g
   id="g40">
</g>
<g
   id="g42">
</g>
<g
   id="g44">
</g>
<g
   id="g46">
</g>
<g
   id="g48">
</g>
<g
   id="g50">
</g>
<g
   id="g52">
</g>
</svg>
